<svg width="20" height="20" viewBox="0 0 20 20" fill="none" xmlns="http://www.w3.org/2000/svg"><path d="M17.25 10a7.25 7.25 0 1 0-14.5 0" stroke="#10141A" stroke-width="1.5"/><path d="M2 10a1 1 0 0 1 1-1h1a1 1 0 0 1 1 1v3a1 1 0 0 1-1 1 2 2 0 0 1-2-2v-2zm16 0a1 1 0 0 0-1-1h-1a1 1 0 0 0-1 1v3.5a.5.5 0 0 0 .5.5H17a1 1 0 0 0 1-1v-3z" fill="#10141A"/><path d="M15 12v2.25h1.5V12H15zm-2.25 4.5H10V18h2.75v-1.5zM15 14.25a2.25 2.25 0 0 1-2.25 2.25V18a3.75 3.75 0 0 0 3.75-3.75H15z" fill="#10141A"/><rect x="8" y="15.5" width="4" height="2.5" rx="1.25" fill="#10141A"/></svg>