<svg width="16" height="16" viewBox="0 0 16 16" fill="none" xmlns="http://www.w3.org/2000/svg"><path fill-rule="evenodd" clip-rule="evenodd" d="M2.754 9.808C1.681 9.034 1 7.894 1 6.637 1 4.303 3.264 2.42 6.06 2.42c2.521 0 4.612 1.537 4.993 3.542h-.07a3.334 3.334 0 0 0-.2 0c-2.552-.003-4.617 1.714-4.621 3.846.004.344.064.69.168 1.012-.086.01-.179.012-.27 0a6.167 6.167 0 0 1-1.653-.202 1.043 1.043 0 0 0-.201-.031.428.428 0 0 0-.204.065l-1.113.64a.216.216 0 0 1-.101.034.165.165 0 0 1-.169-.168.206.206 0 0 1 .017-.081.648.648 0 0 0 .017-.054l.045-.19c.04-.168.1-.422.157-.654a.566.566 0 0 0 .02-.135.266.266 0 0 0-.12-.236zm.912-4.52a.675.675 0 1 0 1.35 0 .675.675 0 0 0-1.35 0zm3.373 0a.675.675 0 1 0 1.349 0 .675.675 0 0 0-1.35 0zm3.744 1.011c2.328 0 4.216 1.57 4.216 3.509 0 1.053-.568 2.003-1.45 2.631-.078.066-.114.14-.114.21 0 .07.004.091.013.128.058.26.171.671.181.704l.005.017a.251.251 0 0 1 .016.088.136.136 0 0 1-.135.135.193.193 0 0 1-.101-.033l-.911-.54-.008-.004c-.062-.033-.133-.07-.215-.055-.08.016-.082.016-.11.024l-.004.001a5.235 5.235 0 0 1-1.383.202c-2.33-.007-4.217-1.576-4.217-3.508 0-1.94 1.888-3.509 4.217-3.509zM8.827 8.645c0 .314.241.556.523.556a.547.547 0 0 0 .556-.556.54.54 0 0 0-.556-.524.533.533 0 0 0-.523.524zm2.799 0c0 .314.241.556.523.556a.547.547 0 0 0 .556-.556.54.54 0 0 0-.556-.524.533.533 0 0 0-.523.524z" fill="#B5B8BB"/></svg>