<svg width="120" height="30" viewBox="0 0 120 30" fill="none" xmlns="http://www.w3.org/2000/svg"><path d="M13.053 2.7c7.033 0 12.754 4.954 12.754 11.084 0 .224-.01.445-.021.667l-.01.136-.102-.09a2.554 2.554 0 0 0-2.532-.504l-.091.03v-.451c-.16-4.558-4.573-8.24-10-8.24-1.13 0-2.217.16-3.232.454l-.43.133C5.673 7.164 3.05 10.241 3.05 13.821c0 2.52 1.3 4.788 3.365 6.348l.094.081a.9.9 0 0 1 .263.667l-.012.124-.351 1.996a.172.172 0 0 0 .254.178l2.293-1.323.085-.042c.2-.088.424-.1.633-.037l.4.115a11.53 11.53 0 0 0 2.98.385 11.59 11.59 0 0 0 3.437-.518l.073-.021.012.076a2.57 2.57 0 0 0 1.63 1.956l.166.064-.167.063a14.35 14.35 0 0 1-5.151.942 14.48 14.48 0 0 1-3.792-.5l-3.79 1.848a.96.96 0 0 1-1.374-.963l.345-3.292C1.9 19.938.3 17.025.3 13.788.3 7.653 6.018 2.7 13.054 2.7z" fill="#0082EF"/><path fill-rule="evenodd" clip-rule="evenodd" d="M25.29 15.105c.315.315.493.714.533 1.13h.003a4.591 4.591 0 0 0 1.42 2.798l.024.024a.467.467 0 0 1-.009.648.459.459 0 0 1-.648.01l-.024-.025c-.03-.036-.064-.07-.094-.103a4.629 4.629 0 0 0-2.686-1.32 1.877 1.877 0 0 1-1.148-.533 1.853 1.853 0 0 1 0-2.626 1.853 1.853 0 0 1 2.626 0l.003-.003z" fill="#2DBC00"/><path fill-rule="evenodd" clip-rule="evenodd" d="M30.275 22.61a1.836 1.836 0 0 1-1.13.533h-.003a4.624 4.624 0 0 0-2.701 1.326 1.291 1.291 0 0 0-.091.097l-.025.024a.467.467 0 0 1-.648-.009.459.459 0 0 1-.009-.648l.024-.024c.037-.03.07-.063.103-.094a4.63 4.63 0 0 0 1.32-2.686 1.877 1.877 0 0 1 .533-1.148 1.854 1.854 0 0 1 2.627 0 1.854 1.854 0 0 1 0 2.626v.003z" fill="#0082EF"/><path fill-rule="evenodd" clip-rule="evenodd" d="M22.773 27.595a1.836 1.836 0 0 1-.533-1.13h-.003a4.592 4.592 0 0 0-1.324-2.707.994.994 0 0 0-.097-.091l-.024-.024a.467.467 0 0 1 .01-.649.459.459 0 0 1 .647-.009l.025.025c.03.036.063.07.093.102a4.628 4.628 0 0 0 2.687 1.321 1.877 1.877 0 0 1 1.148.533 1.853 1.853 0 0 1 0 2.626 1.854 1.854 0 0 1-2.626 0l-.003.003z" fill="#FB6500"/><path fill-rule="evenodd" clip-rule="evenodd" d="M17.785 20.093a1.836 1.836 0 0 1 1.13-.533h.002a4.625 4.625 0 0 0 2.702-1.327c.033-.033.067-.066.09-.097l.025-.024a.467.467 0 0 1 .648.01c.182.181.185.46.01.647l-.025.025c-.036.03-.07.063-.103.093a4.63 4.63 0 0 0-1.32 2.687 1.877 1.877 0 0 1-.533 1.148 1.854 1.854 0 0 1-2.626 0 1.853 1.853 0 0 1 0-2.626v-.003z" fill="#FC0"/><path d="M83.35 11.954l-.018.048c-.23.603-.557 1.287-.999 2.099l-.009 10.815h-1.947v-8.271c-.106.118-.215.242-.327.369-.352.4-.715.813-1.07 1.14l-.057.05-.966-1.804.03-.03c1.672-1.672 2.931-3.557 3.546-5.31l.025-.067 1.793.96zm22.963-5.873l-.015.052c-.518 1.763-1.078 3.19-1.759 4.48v14.303h-2.178V14.023c-.309.396-.658.778-.997 1.15-.19.21-.39.427-.572.639l-.066.079-.878-2.407.027-.028c1.887-1.95 3.298-4.661 4.315-8.287l.018-.069 2.105.981zm-12.039-.418l-.005.058c-.037.267-.07.549-.107.83-.088.709-.178 1.442-.281 2.066h3.855v1.98h-.912c-.106 3.347-.574 5.958-1.52 8.453.81 1.68 1.802 3.128 2.662 3.876l.04.037-1.327 1.947-.003.003.002-.003-.05-.051c-.727-.727-1.602-2.07-2.356-3.605a13.98 13.98 0 0 1-2.723 3.407l-.049.046-1.232-1.653.042-.037c1.193-1.024 2.226-2.431 2.91-3.973-.442-1.25-.83-2.63-1.15-4.101a20.63 20.63 0 0 1-.83 1.699l-.046.082-1.262-1.66h-6.418V13.14h6.833v.984c.908-2.274 1.55-5.218 1.914-8.755l.006-.064 2.007.357zm-4.533 14.44l1.397-1.177.578 1.777-3.546 2.926-.96-1.799.052-.03a.945.945 0 0 0 .454-.63v-3.01H86.2v.884c-.04 2.426-.712 4.328-1.993 5.655l-.042.044h-.006l-1.469-1.52.042-.042c.909-.89 1.306-2.126 1.33-4.137v-2.787h5.678v3.847zm28.53 4.417h-10.988v-6.967h10.988v6.967zm-71.04-9.002h5.473v2.208h-5.473v4.229h7.002v2.205H36.458v-2.206h3.12v-7.996h2.214v7.996h3.18V10.933h2.26v4.585zM65.603 21.9h1.878V5.482h2.323V21.9h6.311v2.26H57.247V21.9h6.033V5.482h2.323V21.9zm43.822.657h6.735V19.58h-6.735v2.977zm-33.773-12.4l-.011.055c-.83 3.738-1.803 6.809-2.972 9.383l-.023.05.001.002h-.003l-2.016-.71.03-.06c1.036-2.147 1.914-4.91 2.935-9.237l.014-.06 2.045.578zm-15.978-.665a72.151 72.151 0 0 1 2.85 9.53l.011.058-2.11.51-.013-.061c-.666-3.062-1.557-6.128-2.72-9.368l-.02-.058 1.98-.666.022.055zm33.786 1.1a8.422 8.422 0 0 0-.11.528c-.033.185-.063.358-.13.597.304 1.778.67 3.408 1.037 4.622.393-1.587.63-3.47.718-5.748H93.46zm24.696 5.741h-10.89l.017-2.008h10.873v2.008zM46.286 5.375c2.58 2.941 5.716 5.337 9.063 6.93l.056.027-1.222 2.217-.052-.027c-3.377-1.75-6.288-4.053-8.654-6.839-2.207 2.632-5.145 4.94-8.737 6.857l-.055.03h-.002l-1.17-2.183.058-.027c3.49-1.717 6.633-4.132 9.092-6.985l.019-.021h1.587l.017.021zm71.843 7.818h-10.895v-2.005h10.895v2.005zM83.449 6.38l-.02.048a15.841 15.841 0 0 1-4.378 6.291l-.059.052h-.003l-1.023-1.914.036-.032c1.439-1.314 2.85-3.418 3.593-5.363l.023-.063 1.83.981zm4.563-1.014v4.7h.853V6.499h1.688v5.407h-6.906V6.499h1.672v3.568h.878l-.048-4.713 1.863.013zm25.674 2.673h6.014v2.084h-13.94V8.04h5.633l-.782-1.931 2.126-.576.949 2.507z" fill="#0082EF"/></svg>